<svg width="35" height="35" viewBox="0 0 35 35" fill="none" xmlns="http://www.w3.org/2000/svg">
<path d="M31.1111 0H3.88889C1.73056 0 0 1.5 0 3.33333V26.6667C0 28.5 1.73056 30 3.88889 30H11.6667L17.5 35L23.3333 30H31.1111C33.25 30 35 28.5 35 26.6667V3.33333C35 1.5 33.25 0 31.1111 0ZM19.4444 26.6667H15.5556V23.3333H19.4444V26.6667ZM23.4694 13.75L21.7194 15.2833C20.3194 16.5 19.4444 17.5 19.4444 20H15.5556V19.1667C15.5556 17.3333 16.4306 15.6667 17.8306 14.45L20.2417 12.35C20.9611 11.75 21.3889 10.9167 21.3889 10C21.3889 8.16667 19.6389 6.66667 17.5 6.66667C15.3611 6.66667 13.6111 8.16667 13.6111 10H9.72222C9.72222 6.31667 13.2028 3.33333 17.5 3.33333C21.7972 3.33333 25.2778 6.31667 25.2778 10C25.2778 11.4667 24.5778 12.8 23.4694 13.75Z" fill="white"/>
</svg>
