<svg width="35" height="35" viewBox="0 0 35 35" fill="none" xmlns="http://www.w3.org/2000/svg">
<path d="M11.6667 15.75H7.77778V19.25H11.6667V15.75ZM19.4444 15.75H15.5556V19.25H19.4444V15.75ZM27.2222 15.75H23.3333V19.25H27.2222V15.75ZM31.1111 3.5H29.1667V0H25.2778V3.5H9.72222V0H5.83333V3.5H3.88889C1.73056 3.5 0.0194444 5.075 0.0194444 7L0 31.5C0 33.425 1.73056 35 3.88889 35H31.1111C33.25 35 35 33.425 35 31.5V7C35 5.075 33.25 3.5 31.1111 3.5ZM31.1111 31.5H3.88889V12.25H31.1111V31.5Z" fill="white"/>
</svg>
